<svg xmlns="http://www.w3.org/2000/svg" width="13" height="16" viewBox="0 0 13 16">
  <metadata><?xpacket begin="﻿" id="W5M0MpCehiHzreSzNTczkc9d"?>
<x:xmpmeta xmlns:x="adobe:ns:meta/" x:xmptk="Adobe XMP Core 5.6-c138 79.159824, 2016/09/14-01:09:01        ">
   <rdf:RDF xmlns:rdf="http://www.w3.org/1999/02/22-rdf-syntax-ns#">
      <rdf:Description rdf:about=""/>
   </rdf:RDF>
</x:xmpmeta>
                                                                                                    
                                                                                                    
                                                                                                    
                                                                                                    
                                                                                                    
                                                                                                    
                                                                                                    
                                                                                                    
                                                                                                    
                                                                                                    
                                                                                                    
                                                                                                    
                                                                                                    
                                                                                                    
                                                                                                    
                                                                                                    
                                                                                                    
                                                                                                    
                                                                                                    
                                                                                                    
                           
<?xpacket end="w"?></metadata>
<defs>
    <style>
      .cls-1 {
        fill: #fe7373;
        fill-rule: evenodd;
      }
    </style>
  </defs>
  <path id="map" class="cls-1" d="M673,3572.62a6.5,6.5,0,1,0-13,0c0,0.12.011,0.23,0.017,0.35a1.447,1.447,0,0,0-.017.16c0,4.08,6,8.7,6,8.7a0.827,0.827,0,0,0,1,0c0.5-.38,6-4.62,6-8.7a1.45,1.45,0,0,0-.018-0.16C672.988,3572.85,673,3572.74,673,3572.62Zm-6.5,2.55a2.55,2.55,0,1,1,2.5-2.55A2.525,2.525,0,0,1,666.5,3575.17Z" transform="translate(-660 -3566)"/>
</svg>
