<svg xmlns="http://www.w3.org/2000/svg" width="14" height="16" viewBox="0 0 14 16">
  <metadata><?xpacket begin="﻿" id="W5M0MpCehiHzreSzNTczkc9d"?>
<x:xmpmeta xmlns:x="adobe:ns:meta/" x:xmptk="Adobe XMP Core 5.6-c138 79.159824, 2016/09/14-01:09:01        ">
   <rdf:RDF xmlns:rdf="http://www.w3.org/1999/02/22-rdf-syntax-ns#">
      <rdf:Description rdf:about=""/>
   </rdf:RDF>
</x:xmpmeta>
                                                                                                    
                                                                                                    
                                                                                                    
                                                                                                    
                                                                                                    
                                                                                                    
                                                                                                    
                                                                                                    
                                                                                                    
                                                                                                    
                                                                                                    
                                                                                                    
                                                                                                    
                                                                                                    
                                                                                                    
                                                                                                    
                                                                                                    
                                                                                                    
                                                                                                    
                                                                                                    
                           
<?xpacket end="w"?></metadata>
<defs>
    <style>
      .cls-1 {
        fill: #fe7373;
        fill-rule: evenodd;
      }
    </style>
  </defs>
  <path id="watch" class="cls-1" d="M417,3581.73V3583a1,1,0,0,1-1,1h-6a1,1,0,0,1-1-1v-1.27a6.972,6.972,0,0,1,0-11.46V3569a1,1,0,0,1,1-1h6a1,1,0,0,1,1,1v1.27A6.972,6.972,0,0,1,417,3581.73ZM413,3571a5,5,0,1,0,5,5A5,5,0,0,0,413,3571Zm0.707,5.71-2,2h0a1,1,0,0,1-1.414-1.42h0l1.707-1.7V3573a1,1,0,0,1,2,0v3a1,1,0,0,1-.293.71h0Z" transform="translate(-406 -3568)"/>
</svg>
